<svg width="24" height="24" viewBox="0 0 24 24" fill="none" xmlns="http://www.w3.org/2000/svg">
<path d="M18.9998 22V14.9C18.9996 13.9806 18.8183 13.0702 18.4662 12.2209C18.1141 11.3715 17.5982 10.5999 16.9478 9.95L14.9978 8V14.587C14.9978 15.477 13.9208 15.924 13.2908 15.294L11.9958 14C11.4958 13.5 10.2948 13.2 9.49383 14C8.69383 14.8 8.99383 16 9.49383 16.5L14.9978 22" stroke="#202020" stroke-width="1.5" stroke-linecap="round" stroke-linejoin="round"/>
<path d="M11 2H13C13.5304 2 14.0391 2.21071 14.4142 2.58579C14.7893 2.96086 15 3.46957 15 4V6M11 2C11 3.333 11.8 6 15 6M11 2H9M15 6V12M5 12V6M9 2H7C6.46957 2 5.96086 2.21071 5.58579 2.58579C5.21071 2.96086 5 3.46957 5 4V6M9 2C9 3.333 8.2 6 5 6M5 12V14C5 14.5304 5.21071 15.0391 5.58579 15.4142C5.96086 15.7893 6.46957 16 7 16H9C9 14.667 8.2 12 5 12Z" stroke="#202020" stroke-width="1.5" stroke-linecap="round" stroke-linejoin="round"/>
<path d="M9 9C9 9.55228 9.44772 10 10 10C10.5523 10 11 9.55228 11 9C11 8.44772 10.5523 8 10 8C9.44772 8 9 8.44772 9 9Z" stroke="#202020" stroke-width="1.5" stroke-linecap="round" stroke-linejoin="round"/>
</svg>
