<svg width="11" height="12" viewBox="0 0 11 12" fill="none" xmlns="http://www.w3.org/2000/svg">
<path d="M9.77994 5.37L9.09994 4.58C8.96994 4.43 8.86494 4.15 8.86494 3.95V3.1C8.86494 2.57 8.42994 2.135 7.89994 2.135H7.04994C6.85494 2.135 6.56994 2.03 6.41994 1.9L5.62994 1.22C5.28494 0.924999 4.71994 0.924999 4.36994 1.22L3.58494 1.905C3.43494 2.03 3.14994 2.135 2.95494 2.135H2.08994C1.55994 2.135 1.12494 2.57 1.12494 3.1V3.955C1.12494 4.15 1.01994 4.43 0.894941 4.58L0.219941 5.375C-0.0700586 5.72 -0.0700586 6.28 0.219941 6.625L0.894941 7.42C1.01994 7.57 1.12494 7.85 1.12494 8.045V8.9C1.12494 9.43 1.55994 9.865 2.08994 9.865H2.95494C3.14994 9.865 3.43494 9.97 3.58494 10.1L4.37494 10.78C4.71994 11.075 5.28494 11.075 5.63494 10.78L6.42494 10.1C6.57494 9.97 6.85494 9.865 7.05494 9.865H7.90494C8.43494 9.865 8.86994 9.43 8.86994 8.9V8.05C8.86994 7.855 8.97494 7.57 9.10494 7.42L9.78494 6.63C10.0749 6.285 10.0749 5.715 9.77994 5.37ZM7.07994 5.055L4.66494 7.47C4.59494 7.54 4.49994 7.58 4.39994 7.58C4.29994 7.58 4.20494 7.54 4.13494 7.47L2.92494 6.26C2.77994 6.115 2.77994 5.875 2.92494 5.73C3.06994 5.585 3.30994 5.585 3.45494 5.73L4.39994 6.675L6.54994 4.525C6.69494 4.38 6.93494 4.38 7.07994 4.525C7.22494 4.67 7.22494 4.91 7.07994 5.055Z" fill="white"/>
</svg>
