<svg width="48" height="48" viewBox="0 0 48 48" fill="none" xmlns="http://www.w3.org/2000/svg">
<circle cx="24" cy="24" r="24" fill="#FFFFE5"/>
<circle cx="10.5" cy="8.5" r="1.5" fill="#FFCD03"/>
<circle cx="24" cy="24" r="14" fill="#E52525"/>
<circle cx="24" cy="24.0001" r="12.8333" fill="#FFCD03"/>
<path d="M17.0246 27.8333V19.4333H20.6606C21.4126 19.4333 22.0606 19.5573 22.6046 19.8053C23.1486 20.0453 23.5686 20.3933 23.8646 20.8493C24.1606 21.3053 24.3086 21.8493 24.3086 22.4813C24.3086 23.1053 24.1606 23.6453 23.8646 24.1013C23.5686 24.5493 23.1486 24.8933 22.6046 25.1333C22.0606 25.3733 21.4126 25.4933 20.6606 25.4933H18.1046L18.9686 24.6413V27.8333H17.0246ZM22.3646 27.8333L20.2646 24.7853H22.3406L24.4646 27.8333H22.3646ZM18.9686 24.8573L18.1046 23.9453H20.5526C21.1526 23.9453 21.6006 23.8173 21.8966 23.5613C22.1926 23.2973 22.3406 22.9373 22.3406 22.4813C22.3406 22.0173 22.1926 21.6573 21.8966 21.4013C21.6006 21.1453 21.1526 21.0173 20.5526 21.0173H18.1046L18.9686 20.0933V24.8573ZM29.5328 27.9293C28.9888 27.9293 28.5128 27.8093 28.1048 27.5693C27.6968 27.3293 27.3768 26.9653 27.1448 26.4773C26.9208 25.9813 26.8088 25.3573 26.8088 24.6053C26.8088 23.8453 26.9168 23.2213 27.1328 22.7333C27.3488 22.2453 27.6608 21.8813 28.0688 21.6413C28.4768 21.4013 28.9648 21.2813 29.5328 21.2813C30.1408 21.2813 30.6848 21.4213 31.1648 21.7013C31.6528 21.9733 32.0368 22.3573 32.3168 22.8533C32.6048 23.3493 32.7488 23.9333 32.7488 24.6053C32.7488 25.2853 32.6048 25.8733 32.3168 26.3693C32.0368 26.8653 31.6528 27.2493 31.1648 27.5213C30.6848 27.7933 30.1408 27.9293 29.5328 27.9293ZM25.7168 30.1613V21.3773H27.5048V22.6973L27.4688 24.6173L27.5888 26.5253V30.1613H25.7168ZM29.2088 26.3933C29.5208 26.3933 29.7968 26.3213 30.0368 26.1773C30.2848 26.0333 30.4808 25.8293 30.6248 25.5653C30.7768 25.2933 30.8528 24.9733 30.8528 24.6053C30.8528 24.2293 30.7768 23.9093 30.6248 23.6453C30.4808 23.3813 30.2848 23.1773 30.0368 23.0333C29.7968 22.8893 29.5208 22.8173 29.2088 22.8173C28.8968 22.8173 28.6168 22.8893 28.3688 23.0333C28.1208 23.1773 27.9248 23.3813 27.7808 23.6453C27.6368 23.9093 27.5648 24.2293 27.5648 24.6053C27.5648 24.9733 27.6368 25.2933 27.7808 25.5653C27.9248 25.8293 28.1208 26.0333 28.3688 26.1773C28.6168 26.3213 28.8968 26.3933 29.2088 26.3933Z" fill="#E52525"/>
<path d="M15.25 8.5V18" stroke="#E52525" stroke-width="3" stroke-linecap="round"/>
<path d="M20 13.25L10.5 13.25" stroke="#E52525" stroke-width="3" stroke-linecap="round"/>
</svg>
