<svg width="24" height="24" viewBox="0 0 24 24" fill="none" xmlns="http://www.w3.org/2000/svg">
<path d="M6.65375 19.6871C6.19897 19.6871 5.80978 19.5239 5.4862 19.1973C5.16207 18.8703 5 18.4773 5 18.0184V4.66871C5 4.20982 5.16207 3.81683 5.4862 3.48977C5.80978 3.16326 6.19897 3 6.65375 3H13.2687L18.23 8.00613V13.0123H16.5762V8.84049H12.4419V4.66871H6.65375V18.0184H14.0956V19.6871H6.65375ZM19.8424 20L17.4031 17.5386V19.3951H15.7494V14.681H20.4212V16.3497H18.5607L21 18.811L19.8424 20ZM6.65375 18.0184V4.66871V18.0184Z" fill="white"/>
</svg>
