<svg width="10" height="10" viewBox="0 0 10 10" fill="none" xmlns="http://www.w3.org/2000/svg">
<path d="M9.77994 4.37L9.10494 3.58C8.97994 3.43 8.87494 3.15 8.87494 2.95V2.1C8.87494 1.57 8.43994 1.135 7.90994 1.135H7.05994C6.85994 1.135 6.57494 1.03 6.42494 0.905001L5.63494 0.230001C5.28994 -0.0649991 4.72494 -0.0649991 4.37994 0.230001L3.57994 0.905001C3.42994 1.03 3.14994 1.135 2.94994 1.135H2.08494C1.55494 1.135 1.11994 1.57 1.11994 2.1V2.95C1.11994 3.145 1.01994 3.425 0.894941 3.575L0.219941 4.37C-0.0700586 4.72 -0.0700586 5.28 0.219941 5.62L0.894941 6.415C1.01994 6.56 1.11994 6.845 1.11994 7.04V7.895C1.11994 8.425 1.55494 8.86 2.08494 8.86H2.95494C3.14994 8.86 3.43494 8.965 3.58494 9.09L4.37494 9.765C4.71994 10.06 5.28494 10.06 5.62994 9.765L6.41994 9.09C6.56994 8.965 6.84994 8.86 7.04994 8.86H7.89994C8.42994 8.86 8.86494 8.425 8.86494 7.895V7.045C8.86494 6.845 8.96994 6.565 9.09494 6.415L9.76994 5.625C10.0749 5.285 10.0749 4.72 9.77994 4.37ZM4.62494 3.065C4.62494 2.86 4.79494 2.69 4.99994 2.69C5.20494 2.69 5.37494 2.86 5.37494 3.065V5.48C5.37494 5.685 5.20494 5.855 4.99994 5.855C4.79494 5.855 4.62494 5.685 4.62494 5.48V3.065ZM4.99994 7.435C4.72494 7.435 4.49994 7.21 4.49994 6.935C4.49994 6.66 4.71994 6.435 4.99994 6.435C5.27494 6.435 5.49994 6.66 5.49994 6.935C5.49994 7.21 5.27994 7.435 4.99994 7.435Z" fill="white"/>
</svg>
