<svg width="24" height="24" viewBox="0 0 24 24" fill="none" xmlns="http://www.w3.org/2000/svg">
<path d="M17.3333 6.66667H19.0756C19.5822 6.66667 20 7.08444 20 7.59111V19.0756C20 19.5822 19.5822 20 19.0756 20H7.59111C7.08444 20 6.66667 19.5822 6.66667 19.0756V17.3333H4.92444C4.41778 17.3333 4 16.9156 4 16.4089V4.92444C4 4.41778 4.41778 4 4.92444 4H16.4089C16.9156 4 17.3333 4.41778 17.3333 4.92444V6.66667ZM5.77778 15.5556H15.5556V5.77778H5.77778V15.5556ZM10.2222 8C10.2222 7.26222 9.62667 6.66667 8.88889 6.66667C8.15111 6.66667 7.55556 7.26222 7.55556 8C7.55556 8.73778 8.15111 9.33333 8.88889 9.33333C9.62667 9.33333 10.2222 8.73778 10.2222 8ZM12 12C12 12 12.8889 7.55556 14.6667 7.55556V14.6667H6.66667V9.33333C8.44444 9.33333 8.44444 12 8.44444 12C8.44444 12 8.73778 10.2222 10.2222 10.2222C11.7067 10.2222 12 12 12 12ZM18.2222 18.2222V8.44444H17.3333V16.4089C17.3333 16.9156 16.9156 17.3333 16.4089 17.3333H8.44444V18.2222H18.2222Z" fill="white"/>
</svg>
