<svg
        xmlns="http://www.w3.org/2000/svg"
        viewBox="0 0 44.74 43.34"
        fill="none"
        stroke-width="1.5"
        stroke-linecap="round"
        stroke-linejoin="round">
    <!-- <defs>
        <style>.cls-1{fill:#e52525;}</style>
    </defs> -->
    <path
            class="cls-1"
            d="M41.45,12,27.07,1.53a8,8,0,0,0-9.4,0L3.3,12A8,8,0,0,0,.39,20.91l5.49,16.9a8,8,0,0,0,7.61,5.53H31.25a8,8,0,0,0,7.61-5.53l5.49-16.9A8,8,0,0,0,41.45,12ZM35.89,22.35l-1.68,10a5,5,0,0,1-4.77,4H15.31a5,5,0,0,1-4.76-4L8.87,22.36a5.21,5.21,0,0,1,1.74-4.57l8.74-7a5,5,0,0,1,6.06,0l8.74,7A5.37,5.37,0,0,1,35.89,22.35Z" />
    <path
            class="cls-1"
            d="M22.37,26.11a1,1,0,0,0-1,1v4a1,1,0,0,0,2,0v-4A1,1,0,0,0,22.37,26.11Z" />
</svg>