<svg width="48" height="48" viewBox="0 0 48 48" fill="none" xmlns="http://www.w3.org/2000/svg">
<circle cx="24" cy="24" r="24" fill="#FFFFE5"/>
<path d="M12.8888 39.7144C12.0158 39.7144 11.2682 39.3999 10.646 38.771C10.0248 38.141 9.71423 37.384 9.71423 36.5001V14.0001C9.71423 13.1162 10.0248 12.3597 10.646 11.7308C11.2682 11.1008 12.0158 10.7858 12.8888 10.7858H14.4761V9.17868C14.4761 8.72332 14.628 8.34135 14.9317 8.03278C15.2365 7.72528 15.6137 7.57153 16.0634 7.57153C16.5132 7.57153 16.8904 7.72528 17.1952 8.03278C17.4989 8.34135 17.6507 8.72332 17.6507 9.17868V10.7858H30.3492V9.17868C30.3492 8.72332 30.5015 8.34135 30.8063 8.03278C31.11 7.72528 31.4867 7.57153 31.9365 7.57153C32.3862 7.57153 32.7629 7.72528 33.0666 8.03278C33.3714 8.34135 33.5238 8.72332 33.5238 9.17868V10.7858H35.1111C35.9841 10.7858 36.7317 11.1008 37.3539 11.7308C37.9751 12.3597 38.2857 13.1162 38.2857 14.0001V36.5001C38.2857 37.384 37.9751 38.141 37.3539 38.771C36.7317 39.3999 35.9841 39.7144 35.1111 39.7144H12.8888ZM12.8888 36.5001H35.1111V20.4287H12.8888V36.5001ZM23.3253 33.4465L22.0158 30.4733L19.0793 29.1474C18.7883 29.0135 18.6428 28.7858 18.6428 28.4644C18.6428 28.143 18.7883 27.9153 19.0793 27.7814L22.0158 26.4555L23.3253 23.4822C23.4576 23.1876 23.6825 23.0403 23.9999 23.0403C24.3174 23.0403 24.5423 23.1876 24.6746 23.4822L25.9841 26.4555L28.9206 27.7814C29.2116 27.9153 29.3571 28.143 29.3571 28.4644C29.3571 28.7858 29.2116 29.0135 28.9206 29.1474L25.9841 30.4733L24.6746 33.4465C24.5423 33.7412 24.3174 33.8885 23.9999 33.8885C23.6825 33.8885 23.4576 33.7412 23.3253 33.4465Z" fill="#E52525"/>
<path d="M23.0698 23.5015C23.4027 22.6574 24.5974 22.6574 24.9303 23.5015L25.861 25.8613C25.9626 26.1191 26.1666 26.3231 26.4244 26.4247L28.7842 27.3554C29.6283 27.6883 29.6283 28.883 28.7842 29.2159L26.4244 30.1466C26.1666 30.2483 25.9626 30.4523 25.861 30.71L24.9303 33.0698C24.5974 33.914 23.4027 33.914 23.0698 33.0698L22.1391 30.71C22.0374 30.4523 21.8334 30.2483 21.5757 30.1466L19.2159 29.2159C18.3717 28.883 18.3717 27.6883 19.2159 27.3554L21.5757 26.4247C21.8334 26.3231 22.0374 26.1191 22.1391 25.8613L23.0698 23.5015Z" fill="#FFCD03"/>
</svg>
