<svg width="24" height="24" viewBox="0 0 24 24" fill="none" xmlns="http://www.w3.org/2000/svg">
<path d="M11.8399 10.87C11.9399 10.86 12.0599 10.86 12.1699 10.87C14.5499 10.79 16.4399 8.84 16.4399 6.44C16.4399 3.99 14.4599 2 11.9999 2C9.54994 2 7.55994 3.99 7.55994 6.44C7.56994 8.84 9.45994 10.79 11.8399 10.87Z" stroke="#202020" stroke-width="1.5" stroke-linecap="round" stroke-linejoin="round"/>
<path d="M16.8398 14.56C19.2598 16.18 19.2598 18.82 16.8398 20.43C14.0898 22.27 9.57978 22.27 6.82978 20.43C4.40978 18.81 4.40978 16.17 6.82978 14.56C9.56978 12.73 14.0798 12.73 16.8398 14.56Z" stroke="#202020" stroke-width="1.5" stroke-linecap="round" stroke-linejoin="round"/>
</svg>
