<svg width="48" height="48" viewBox="0 0 48 48" fill="none" xmlns="http://www.w3.org/2000/svg">
<rect width="48" height="48" fill="#E5E5E5"/>
<path d="M-604 -439C-604 -440.105 -603.105 -441 -602 -441H3302C3303.1 -441 3304 -440.105 3304 -439V912C3304 913.105 3303.1 914 3302 914H-602C-603.105 914 -604 913.105 -604 912V-439Z" fill="#D9D9D9"/>
<rect width="360" height="800" transform="translate(-486 -163)" fill="url(#paint0_radial_843_34259)"/>
<rect x="-17" y="-8" width="82" height="98" rx="8" fill="white"/>
<circle cx="24" cy="24" r="24" fill="#FFFFE5"/>
<path fill-rule="evenodd" clip-rule="evenodd" d="M33.767 26.7787L40 32.6649L38.0031 34.5507L35.179 31.8844L35.179 38H32.3549L32.3549 31.8844L29.5308 34.5507L27.5339 32.6649L33.767 26.7787ZM29.5324 10L36.5926 16.6673L36.5926 27.531L33.776 24.8712L33.7685 24.8782L33.7685 17.772L28.3626 12.6669H16.8241V34.0023H26.9853L29.5395 36.4144L30.9506 35.0817L30.9511 36.6692L14 36.6692V10H29.5324ZM28.1204 28.6685L28.1204 30.212L26.9308 31.3354L18.2361 31.3354V28.6685H28.1204ZM26.9731 15.3338L30.9445 19.0842L22.2075 27.335H18.2361V23.5846L26.9731 15.3338ZM26.9724 18.1621L20.3542 24.4121V25.3348H21.3285L27.9481 19.0835L26.9724 18.1621Z" fill="#E52525"/>
<path d="M-602 -440H3302V-442H-602V-440ZM3303 -439V912H3305V-439H3303ZM3302 913H-602V915H3302V913ZM-603 912V-439H-605V912H-603ZM-602 913C-602.552 913 -603 912.552 -603 912H-605C-605 913.657 -603.657 915 -602 915V913ZM3303 912C3303 912.552 3302.55 913 3302 913V915C3303.66 915 3305 913.657 3305 912H3303ZM3302 -440C3302.55 -440 3303 -439.552 3303 -439H3305C3305 -440.657 3303.66 -442 3302 -442V-440ZM-602 -442C-603.657 -442 -605 -440.657 -605 -439H-603C-603 -439.552 -602.552 -440 -602 -440V-442Z" fill="black" fill-opacity="0.1"/>
<defs>
<radialGradient id="paint0_radial_843_34259" cx="0" cy="0" r="1" gradientUnits="userSpaceOnUse" gradientTransform="translate(180 400) rotate(90) scale(400 180)">
<stop stop-color="#D71523"/>
<stop offset="1" stop-color="#C30120"/>
</radialGradient>
</defs>
</svg>
