<svg width="48" height="48" viewBox="0 0 48 48" fill="none" xmlns="http://www.w3.org/2000/svg">
<circle cx="24" cy="24" r="24" fill="#FFFFE5"/>
<rect x="11" y="32" width="21" height="6" fill="#FFCD03"/>
<path d="M35.2661 18.1071L36.3572 19.1982L25.8179 29.7143H24.75V28.6464L35.2661 18.1071ZM39.4447 11.1428C39.1545 11.1428 38.8527 11.2589 38.6322 11.4794L36.5081 13.6035L40.8607 17.9562L42.9848 15.8321C43.4375 15.3794 43.4375 14.625 42.9848 14.1955L40.2688 11.4794C40.0366 11.2473 39.7464 11.1428 39.4447 11.1428M35.2661 14.8455L22.4286 27.683V32.0357H26.7813L39.6188 19.1982L35.2661 14.8455V14.8455Z" fill="#E52525"/>
<path fill-rule="evenodd" clip-rule="evenodd" d="M31.6609 15.7322L25.1072 9.17847H12.9643C12.1592 9.17847 11.387 9.4983 10.8177 10.0676C10.2484 10.6369 9.92859 11.4091 9.92859 12.2142V36.4999C9.92859 37.305 10.2484 38.0772 10.8177 38.6465C11.387 39.2158 12.1592 39.5356 12.9643 39.5356H31.1786C31.9837 39.5356 32.7559 39.2158 33.3252 38.6465C33.8945 38.0772 34.2143 37.305 34.2143 36.4999V28.2955L31.1786 31.3345V36.4999H12.9643V12.2142H23.5893V19.8035H27.594L31.6609 15.7322Z" fill="#E52525"/>
</svg>
