<svg
                xmlns="http://www.w3.org/2000/svg"
                viewBox="0 0 598.02 416.98">
        <defs>
                <style>.cls-1{fill:#e0edf3;}.cls-2{fill:#469e9d;}.cls-3{fill:#fff;}.cls-4{fill:#55c0bf;}.cls-5{fill:#ffd100;}.cls-6{fill:#da9135;}.cls-7{fill:#ffdf4f;}.cls-8{fill:#e2ebf1;}.cls-9{fill:#e5b35b;}.cls-10{fill:#f2d080;}.cls-11{fill:#a7a0e1;}.cls-12{fill:#dddafd;}.cls-13{fill:#86652a;}.cls-14{fill:#d64d8b;}</style>
        </defs>
        <g
                        id="Layer_2"
                        data-name="Layer 2">
                <g id="OBJECTS">
                        <path
                                        class="cls-1"
                                        d="M568.59,295c-13,22.16-30.47,41.27-51.32,57.34a246.71,246.71,0,0,1-24.94,16.91c-.86.52-1.73,1-2.6,1.53A302,302,0,0,1,445,391.89c-1.64.63-3.3,1.24-5,1.84-1.27.46-2.54.91-3.82,1.35l-.35.12q-8.13,2.82-16.49,5.27c-1.82.54-3.64,1.06-5.48,1.56q-5,1.39-10.07,2.64-2.69.68-5.39,1.3a412.24,412.24,0,0,1-40.93,7.36C207.27,432.73,35,374.7,2.81,243.51c-9.58-39.06,6.59-62.95,29.19-78,11.24-7.5,24.09-12.82,36.14-16.73.52-.18,1-.35,1.57-.51l.06,0c10.33-3.27,20-5.53,27.46-7.27,0,0,.38-.88,1.17-2.49,9-18.4,70.91-132.81,219.85-138.34,93.65-3.48,98.92,64.8,135.76,95h0c9.77,8,21.76,13.34,38.21,13.94h0c.67,0,1.36,0,2,.05h0c.91,0,1.83,0,2.77,0,.46,0,.94,0,1.41,0h.5c.67,0,1.34-.06,2-.1a0,0,0,0,0,0,0l1.36-.09c1.21-.09,2.45-.2,3.71-.34h0l.33,0c1-.11,2-.2,2.93-.29h0c2-.16,3.9-.26,5.81-.32h0A86.76,86.76,0,0,1,545,112C601.77,130.66,618.06,210.41,568.59,295Z" />
                        <path
                                        class="cls-2"
                                        d="M419.42,400.47c-1.82.54-3.64,1.06-5.48,1.56q-5,1.39-10.07,2.64-2.69.68-5.39,1.3a412.24,412.24,0,0,1-40.93,7.36c-14.87-4.94-28.79-14-36.65-29.55a66.7,66.7,0,0,1,18-6.07l0,.05a4.46,4.46,0,0,0,4,2.43,4.51,4.51,0,0,0,4.5-3.67c7.54-2,15.58-1.83,23.7-.2C388.2,379.74,405.58,389.73,419.42,400.47Z" />
                        <path
                                        class="cls-3"
                                        d="M344.83,388.21c-2.74-.63-5.13-1.18-5.69-1.36a1.5,1.5,0,0,0-1.88,2.24c.42.55.42.55,6.9,2,10.65,2.46,33.56,7.74,54.32,14.84q2.7-.63,5.39-1.3C381.85,396.74,356.3,390.85,344.83,388.21Z" />
                        <path
                                        class="cls-4"
                                        d="M440.08,393.73c-1.27.46-2.54.91-3.82,1.35l.23.13h-.58l-.05,0-4.46,1.51q-5.92,2-12,3.74c-1.82.54-3.64,1.06-5.48,1.56-14.26-5.16-30.27-13.18-42.78-25.71s-21.5-29.5-21.8-52.64c0,0,10.92-.58,25.84,3.42l.15,5.17a4.45,4.45,0,0,0,8,2.57l3.08-4a100.17,100.17,0,0,1,47,38,122.88,122.88,0,0,1,11.15,20.68l.51,2.42C443.4,392.52,441.74,393.13,440.08,393.73Z" />
                        <path
                                        class="cls-3"
                                        d="M431.81,389.1c-35.8-21-68.16-52.49-69.84-54.61a1.5,1.5,0,0,0-2.8,1c.43,2.11,35.94,35.78,72.38,56.93q2.35,1.36,4.71,2.66c1.28-.44,2.55-.89,3.82-1.35Q435.93,391.53,431.81,389.1Z" />
                        <path
                                        class="cls-3"
                                        d="M508,170.08a9.37,9.37,0,1,0,9.37,9.37A9.38,9.38,0,0,0,508,170.08Zm0,15.74a6.37,6.37,0,1,1,6.37-6.37A6.38,6.38,0,0,1,508,185.82Z" />
                        <path
                                        class="cls-3"
                                        d="M551.28,222.54a1.5,1.5,0,0,1-1.5-1.5V208.79a1.5,1.5,0,1,1,3,0V221A1.5,1.5,0,0,1,551.28,222.54Z" />
                        <path
                                        class="cls-3"
                                        d="M557.41,216.41H545.16a1.5,1.5,0,0,1,0-3h12.25a1.5,1.5,0,0,1,0,3Z" />
                        <path
                                        class="cls-3"
                                        d="M104.09,251.64a9.37,9.37,0,1,0-10.18,14,9.21,9.21,0,0,0,2.21.26,9.37,9.37,0,0,0,8-14.26Zm-1.8,6.38a6.37,6.37,0,1,1-.76-4.81A6.34,6.34,0,0,1,102.29,258Z" />
                        <path
                                        class="cls-3"
                                        d="M43.9,255.6a1.49,1.49,0,0,1-1.28-.71l-6.4-10.45a1.5,1.5,0,0,1,2.55-1.57l6.41,10.45a1.5,1.5,0,0,1-.5,2.06A1.46,1.46,0,0,1,43.9,255.6Z" />
                        <path
                                        class="cls-3"
                                        d="M35.47,253.58a1.5,1.5,0,0,1-.78-2.78l10.45-6.4A1.5,1.5,0,1,1,46.7,247l-10.44,6.4A1.52,1.52,0,0,1,35.47,253.58Z" />
                        <path
                                        class="cls-3"
                                        d="M113.56,175.05s25.86-6.68,29.48-5.12,9.41,25.76,7.65,26.35-10.08-7.73-10.08-7.73-2.06,4.12-5.29,2.75-6.75-7.09-6.75-7.09-.91,2.8-4.23,1.62-7.72-7.59-7.72-7.59Z" />
                        <path
                                        class="cls-1"
                                        d="M48.78,140.39s-13.56-23-17.23-24.47-24.86,11.56-24,13.22,12.59,1.67,12.59,1.67-1.46,4.36,1.8,5.68,9.78-.24,9.78-.24-1.34,2.62,1.85,4.14,10.83.09,10.83.09Z" />
                        <path
                                        class="cls-5"
                                        d="M127.71,156l-21.86,43.81a2.63,2.63,0,0,1-3.53,1.18L33.08,166.48a2.64,2.64,0,0,1-1.18-3.54l21.87-43.81a2.53,2.53,0,0,1,.57-.76,2.63,2.63,0,0,1,3-.42l69.23,34.56a2.63,2.63,0,0,1,1.45,2.61A2.56,2.56,0,0,1,127.71,156Z" />
                        <path
                                        class="cls-6"
                                        d="M35.5,163.61l40.93-3.8a5.46,5.46,0,0,1,5.17,2.56l22.09,35.27-20.3-37.31a5.51,5.51,0,0,0-5.87-2.93Z" />
                        <path
                                        class="cls-7"
                                        d="M127.85,155.38l-50.1,8.23-23.53-45A2.67,2.67,0,0,1,57.3,118l69.23,34.56A2.68,2.68,0,0,1,127.85,155.38Z" />
                        <path
                                        class="cls-6"
                                        d="M55.68,121.42l20.47,39A4.83,4.83,0,0,0,81.3,163l43.12-6.85L80.55,166a4.87,4.87,0,0,1-5.87-2.93Z" />
                        <path
                                        class="cls-1"
                                        d="M535.47,94.21s14.45-22.47,18.18-23.78S578,83,577.15,84.58s-12.65,1.17-12.65,1.17,1.28,4.42-2,5.61-9.77-.63-9.77-.63,1.24,2.68-2,4.07-10.82-.33-10.82-.33Z" />
                        <path
                                        class="cls-3"
                                        d="M464.38,112.74s-25.58-7.69-29.27-6.27-10.4,25.36-8.67,26,10.38-7.32,10.38-7.32,1.89,4.19,5.17,3,7-6.82,7-6.82.8,2.83,4.17,1.78,8-7.28,8-7.28Z" />
                        <path
                                        class="cls-5"
                                        d="M533,70.64l13.69,47a2.64,2.64,0,0,1-1.8,3.27l-74.29,21.63a2.65,2.65,0,0,1-3.27-1.8l-13.68-47a2.56,2.56,0,0,1-.09-.95,2.61,2.61,0,0,1,1.88-2.31l74.29-21.64a2.66,2.66,0,0,1,2.84.94A2.57,2.57,0,0,1,533,70.64Z" />
                        <path
                                        class="cls-6"
                                        d="M470.39,138.8l27.47-30.58a5.51,5.51,0,0,1,5.54-1.64l40.17,10.91-40.24-13.61a5.5,5.5,0,0,0-6.3,1.83Z" />
                        <path
                                        class="cls-7"
                                        d="M532.61,70.06l-31.19,40.06L453.6,93.06a2.65,2.65,0,0,1,1.8-2.58l74.29-21.64A2.71,2.71,0,0,1,532.61,70.06Z" />
                        <path
                                        class="cls-6"
                                        d="M456.56,94.12,498,108.82a4.82,4.82,0,0,0,5.55-1.59l27-34.3L505.11,110a4.88,4.88,0,0,1-6.3,1.84Z" />
                        <path
                                        class="cls-3"
                                        d="M188.55,353.12s18.83-5.83,21.56-4.8,7.83,18.65,6.56,19.15-7.71-5.34-7.71-5.34-1.37,3.1-3.8,2.21-5.22-5-5.22-5-.57,2.09-3.07,1.34-6-5.33-6-5.33Z" />
                        <path
                                        class="cls-3"
                                        d="M139.58,329.83s-10.8-16.49-13.56-17.44S108.1,321.78,108.76,323s9.34.79,9.34.79-.92,3.27,1.53,4.12,7.2-.52,7.2-.52-.89,2,1.51,3,8-.31,8-.31Z" />
                        <path
                                        class="cls-5"
                                        d="M198.32,338.61l-14.59,33.06a1.94,1.94,0,0,1-2.56,1l-52.25-23.06a1.94,1.94,0,0,1-1-2.56L142.51,314a2,2,0,0,1,.4-.58,1.93,1.93,0,0,1,2.17-.41l52.25,23.06a1.92,1.92,0,0,1,1.15,1.87A1.88,1.88,0,0,1,198.32,338.61Z" />
                        <path
                                        class="cls-6"
                                        d="M130.6,347.41l30.05-4.23a4,4,0,0,1,3.9,1.7l17.52,25.24-16.27-26.8a4.06,4.06,0,0,0-4.43-1.95Z" />
                        <path
                                        class="cls-7"
                                        d="M198.4,338.12l-36.65,7.82L142.83,313.6a2,2,0,0,1,2.25-.61l52.25,23.06A2,2,0,0,1,198.4,338.12Z" />
                        <path
                                        class="cls-6"
                                        d="M144,315.6l16.46,28a3.55,3.55,0,0,0,3.89,1.74l31.55-6.56-32,8.84a3.6,3.6,0,0,1-4.43-2Z" />
                        <path
                                        class="cls-5"
                                        d="M168.27,128.45l115.91-86a13.31,13.31,0,0,1,15.94.06l114.16,85.94Z" />
                        <rect
                                        class="cls-5"
                                        x="164.42"
                                        y="127.33"
                                        width="253.71"
                                        height="166.47"
                                        rx="8.08" />
                        <path
                                        class="cls-3"
                                        d="M406.67,138.34,380,159l-.35.27L358,176l-15.62,12.09-32.53,25.18-6.26,4.85L300.14,216a16.88,16.88,0,0,0-17.71.06L279,218.2,273.49,214l-33.65-25.9L224.13,176l-21.74-16.74-4-3.06-23.19-17.85Z" />
                        <path
                                        class="cls-6"
                                        d="M409.18,282.6,303.62,218.11,300.14,216a16.88,16.88,0,0,0-17.71.06L279,218.2,175.22,282.6,273.49,214l8.64-6a16.86,16.86,0,0,1,20.14,0l7.61,5.31Z" />
                        <rect
                                        class="cls-3"
                                        x="175.22"
                                        y="62.98"
                                        width="231.45"
                                        height="75.37" />
                        <polygon
                                        class="cls-8"
                                        points="380.01 147.17 380.01 158.98 379.66 159.25 202.39 159.25 198.41 156.19 198.41 147.17 380.01 147.17" />
                        <polygon
                                        class="cls-8"
                                        points="358.03 175.99 342.41 188.08 239.84 188.08 224.13 175.99 358.03 175.99" />
                        <path d="M241.07,149.4l-2.47,3.25v.06l3.93-.52V154l-3.93-.46v0l2.5,3.12-1.64.93L237.9,154h-.05l-1.69,3.67-1.48-.94,2.47-3.17v0l-3.85.49v-1.76l3.82.49v-.05l-2.44-3.17,1.58-.91,1.62,3.61h.05l1.58-3.64Z" />
                        <path d="M262.89,149.4l-2.47,3.25v.06l3.92-.52V154l-3.92-.46v0l2.49,3.12-1.63.93L259.72,154h-.06L258,157.62l-1.48-.94,2.47-3.17v0l-3.85.49v-1.76l3.83.49v-.05l-2.45-3.17,1.59-.91,1.61,3.61h.05l1.59-3.64Z" />
                        <path d="M284.7,149.4l-2.47,3.25v.06l3.93-.52V154l-3.93-.46v0l2.5,3.12-1.64.93L281.53,154h0l-1.69,3.67-1.49-.94,2.48-3.17v0l-3.85.49v-1.76l3.82.49v-.05l-2.45-3.17,1.59-.91,1.61,3.61h.05l1.59-3.64Z" />
                        <path d="M306.51,149.4l-2.46,3.25v.06l3.92-.52V154l-3.92-.46v0l2.49,3.12-1.64.93L303.34,154h0l-1.69,3.67-1.48-.94,2.47-3.17v0l-3.85.49v-1.76l3.82.49v-.05l-2.44-3.17,1.58-.91,1.62,3.61h.05l1.58-3.64Z" />
                        <path d="M328.33,149.4l-2.47,3.25v.06l3.92-.52V154l-3.92-.46v0l2.49,3.12-1.63.93L325.16,154h-.06l-1.69,3.67-1.48-.94,2.47-3.17v0l-3.85.49v-1.76l3.83.49v-.05l-2.45-3.17,1.59-.91,1.61,3.61h.05l1.59-3.64Z" />
                        <path d="M350.14,149.4l-2.47,3.25v.06l3.93-.52V154l-3.93-.46v0l2.5,3.12-1.64.93L347,154h-.05l-1.69,3.67-1.48-.94,2.47-3.17v0l-3.85.49v-1.76l3.82.49v-.05l-2.44-3.17,1.58-.91,1.61,3.61H347l1.58-3.64Z" />
                        <path
                                        class="cls-9"
                                        d="M308.37,107.44l-35.7-13.32V120.6a2.32,2.32,0,0,0,1.4,2.3l24.14,14c2.09,1.21,5.74,1.06,8.16-.33a3.44,3.44,0,0,0,2-2.58h0Z" />
                        <path
                                        class="cls-10"
                                        d="M298.21,110.29l-24.14-14c-2.09-1.2-1.83-3.31.58-4.71s6.07-1.54,8.16-.33l24.14,14c2.09,1.2,1.83,3.31-.58,4.71S300.3,111.49,298.21,110.29Z" />
                        <path
                                        class="cls-11"
                                        d="M292.9,75a10.11,10.11,0,0,0-15.16,8.76v11c0,1.07,1.49,1.94,3.32,1.94s3.32-.87,3.32-1.94v0h0V85.19a4.29,4.29,0,0,1,6.42-3.72,10.69,10.69,0,0,1,5.37,9.27v14.62h0c0,1,1.51,1.9,3.32,1.9s3.3-.86,3.32-1.92V92.25A19.88,19.88,0,0,0,292.9,75Z" />
                        <path
                                        class="cls-12"
                                        d="M292.71,80.07c-.21-.11-.41-.22-.62-.31a11.66,11.66,0,0,1,5.14,9.65v17.16a3.93,3.93,0,0,0,1.29.47V90.14A11.65,11.65,0,0,0,292.71,80.07Z" />
                        <path
                                        class="cls-11"
                                        d="M286,78.31a5.46,5.46,0,0,0-5.45,5.44V96.39a4.62,4.62,0,0,0,1.91-.23V83.52a5.47,5.47,0,0,1,3.85-5.2Z" />
                        <path
                                        class="cls-12"
                                        d="M289.23,76a10.56,10.56,0,0,1,4.93,1.23,19.23,19.23,0,0,0-1.83-1.2,8.77,8.77,0,0,0-4.46-1.21,9,9,0,0,0-9,9v0A10.85,10.85,0,0,1,289.23,76Z" />
                        <path
                                        class="cls-11"
                                        d="M300.3,94.25v12.84a4.07,4.07,0,0,0,1.66-.58,1,1,0,0,0,.12-.45V93C302.08,87.31,300.3,88.49,300.3,94.25Z" />
                        <path
                                        class="cls-13"
                                        d="M290.76,115a7.19,7.19,0,0,0-3.27-5.64c-1.81-1-3.27-.21-3.27,1.86a7.17,7.17,0,0,0,1.65,4.22V122l3.24,1.87v-6.57C290.1,117.2,290.76,116.37,290.76,115Z" />
                        <path
                                        class="cls-10"
                                        d="M286.44,121.74v-6.57a7.12,7.12,0,0,1-1.66-4.22,2.33,2.33,0,0,1,.86-2c-.86.18-1.42,1-1.42,2.27a7.17,7.17,0,0,0,1.65,4.22V122l3.24,1.87v-.57Z" />
                        <circle
                                        class="cls-14"
                                        cx="292.2"
                                        cy="293.8"
                                        r="37.13"
                                        transform="translate(-61.7 509.33) rotate(-76.5)" />
                        <path
                                        class="cls-3"
                                        d="M290.41,281.78h-.09l-4.75,2.57-.72-2.82,6-3.2H294v27.35h-3.57Z" />
                        <path
                                        class="cls-3"
                                        d="M518.1,299.08s13.7-14.18,16.58-14.59,15.85,12.58,15,13.63-9.33-1-9.33-1,.29,3.38-2.27,3.76-7-1.86-7-1.86.51,2.11-2,2.65-7.79-1.8-7.79-1.8Z" />
                        <path
                                        class="cls-3"
                                        d="M464,302.24s-17.4-9.26-20.28-8.76-11.19,16.86-10,17.59,8.57-3.81,8.57-3.81.77,3.31,3.32,2.88,6.07-3.92,6.07-3.92.17,2.17,2.76,1.89,6.85-4.11,6.85-4.11Z" />
                        <path
                                        class="cls-5"
                                        d="M519.68,281.65l3.13,36a1.94,1.94,0,0,1-1.77,2.1l-56.9,4.95a1.94,1.94,0,0,1-2.1-1.77l-3.13-36a1.82,1.82,0,0,1,.07-.7,1.93,1.93,0,0,1,1.69-1.4l56.9-4.94a1.93,1.93,0,0,1,1.92,1.08A2,2,0,0,1,519.68,281.65Z" />
                        <path
                                        class="cls-6"
                                        d="M464.56,322l24.29-18.18a4.1,4.1,0,0,1,4.25-.38l27.5,13.69-27.16-15.66a4.06,4.06,0,0,0-4.83.42Z" />
                        <path
                                        class="cls-7"
                                        d="M519.51,281.19l-28.36,24.49L459,286.44a2,2,0,0,1,1.67-1.61l56.9-4.94A2,2,0,0,1,519.51,281.19Z" />
                        <path
                                        class="cls-6"
                                        d="M461,287.64l27.9,16.62a3.58,3.58,0,0,0,4.25-.35L517.63,283l-23.79,23.15a3.59,3.59,0,0,1-4.82.42Z" />
                </g>
        </g>
</svg>